<svg width="652" height="652" viewBox="0 0 652 652" fill="currentColor" stroke="currentColor" xmlns="http://www.w3.org/2000/svg">
<path d="M396.8 390.4C396.1 390.8 396 391.5 395.7 391.6C395.4 391.7 395.4 391.4 395.4 391.4L395.2 384.2V383.1C395.2 383.1 395.2 382.7 395.5 382.7C395.8 382.6 395.9 383.1 395.9 383.1C395.9 383.1 396 383.7 396.2 384.2C397.3 387.7 401.3 391.1 405.3 391.2C408.1 391.2 412.2 390.8 412.2 387.3C412.2 380.3 395.6 382.6 395.6 374C395.6 369.5 399.9 367.1 404.2 367C406.2 367 408.2 367.4 409.9 367.8C411.5 368.3 412.5 368.4 413.2 368.1C413.8 367.8 413.9 367.3 414 367.1C414.1 366.8 414.4 366.9 414.5 367.1C414.5 367.4 415.1 373.7 415.1 373.7V373.8L415.2 374.8C415.2 374.8 415.3 375.2 414.9 375.3C414.6 375.4 414.4 375 414.4 375L414 373.9L413.9 373.8C412.4 370.5 408.6 368 405.2 368C403 368 399.6 369.3 399.6 371.6C399.6 376.6 416.5 376.6 416.6 384.7C416.6 389.3 412.1 392.3 406.3 392.3C404.2 392.3 401 391.3 399.7 390.8C398.5 390.2 397.5 390 396.8 390.4Z" fill="currentColor" stroke="currentColor"/>
<path d="M237.5 380.5H234.9L234.8 369.1H237.4C241.4 369.1 244.5 370.8 244.5 374.7C244.6 379.4 240.6 380.5 237.5 380.5ZM239.1 368.2L226.5 368.3C226.5 368.3 226 368.3 226 368.6C226 368.9 226.5 369 226.5 369C227.9 369.1 228.6 369.4 229 369.7C229.5 370.1 229.6 370.9 229.6 372.3L229.7 388.7C229.7 390.1 229.6 390.8 229.1 391.3C228.7 391.6 228 391.9 226.6 392C226.6 392 226.1 392 226.1 392.4C226.1 392.7 226.6 392.7 226.6 392.7L238.1 392.6C238.1 392.6 238.6 392.6 238.6 392.3C238.6 392 238.1 391.9 238.1 391.9C236.7 391.8 236 391.5 235.6 391.2C235.1 390.8 235 390 235 388.6V381.6H238.7C248.2 381.6 250.1 378.5 250.1 374.8C250 369.5 245.8 368.1 239.1 368.2Z" fill="currentColor" stroke="currentColor"/>
<path d="M370.2 371.6C370.2 370.2 370.3 369.5 370.8 369C371.2 368.7 371.9 368.4 373.3 368.3C373.3 368.3 373.8 368.3 373.8 367.9C373.8 367.6 373.3 367.6 373.3 367.6H362.2C362.2 367.6 361.7 367.6 361.7 367.9C361.7 368.2 362.2 368.3 362.2 368.3C363.5 368.4 364.3 368.7 364.7 369C365.2 369.4 365.3 370.2 365.3 371.6L365.4 388C365.4 389.4 365.3 390.1 364.8 390.6C364.4 390.9 363.7 391.2 362.3 391.3C362.3 391.3 361.8 391.3 361.8 391.7C361.8 392 362.3 392 362.3 392H373.4C373.4 392 373.9 392 373.9 391.7C373.9 391.4 373.4 391.3 373.4 391.3C372.1 391.2 371.3 390.9 370.9 390.6C370.4 390.2 370.3 389.4 370.3 388L370.2 371.6Z" fill="currentColor" stroke="currentColor"/>
<path d="M322.6 368.7H325.2C329.2 368.7 332.3 370.1 332.3 374C332.3 378.7 328.3 379.5 325.3 379.6H322.7L322.6 368.7ZM314.2 368.5C315.5 368.6 316.3 368.9 316.7 369.2C317.2 369.6 317.3 370.4 317.3 371.8V371.9L317.4 388.1C317.4 389.5 317.3 390.2 316.8 390.7C316.4 391 315.7 391.3 314.3 391.4C314.3 391.4 313.8 391.4 313.8 391.8C313.8 392.1 314.3 392.1 314.3 392.1H325.8C325.8 392.1 326.3 392.1 326.3 391.8C326.3 391.5 325.8 391.4 325.8 391.4C324.5 391.3 323.7 391 323.3 390.7C322.8 390.3 322.7 389.5 322.7 388.1V387.3V380.8H323.8C324.3 380.8 324.8 380.9 325.2 381.1C326.4 381.6 327.2 382.9 327.8 383.9C329.3 386.3 331 390.7 333.8 392H333.9H341.6C341.6 391.5 341.1 391.3 340.7 391.2C336.6 390.2 336.4 386.8 333.8 383.8C332.6 382.4 331.3 381.3 329.9 380.8C329.6 380.7 329.5 380.6 329.5 380.6C336.3 380 337.9 377.4 337.9 374.2C337.9 369.4 333.6 367.8 326.9 367.8H319.2H314.2C314.2 367.8 313.7 367.8 313.7 368.1C313.7 368.5 314.2 368.5 314.2 368.5Z" fill="black"/>
<path d="M50.5004 270.6C50.5004 265.9 50.8004 263.3 52.5004 261.8C53.9004 260.6 56.3004 259.8 61.0004 259.3C61.0004 259.3 62.7004 259.2 62.7004 258.1C62.7004 257 61.0004 257 61.0004 257L22.6004 257.2C22.6004 257.2 20.9004 257.1 20.9004 258.3C20.9004 259.5 22.6004 259.5 22.6004 259.5C27.2004 260 29.7004 260.8 31.1004 261.9C32.8004 263.4 33.2004 266 33.2004 270.7L33.4004 327.2C33.4004 331.9 33.1004 334.5 31.4004 336C30.0004 337.2 27.6004 338 22.9004 338.5C22.9004 338.5 21.2004 338.6 21.2004 339.7C21.2004 340.9 22.9004 340.8 22.9004 340.8L95.8004 340.5L108 311.8C108 311.8 108.4 311 107.7 310.5C107.3 310.3 106.7 310.1 106.1 311C104.4 313.7 103.8 314.6 103.8 314.6C94.7004 328.5 83.7004 337.7 65.8004 337.8H59.3004H50.8004L50.5004 270.6Z" fill="currentColor" stroke="currentColor"/>
<path d="M487.1 268.7C487.1 264 487.4 261.4 489.1 259.9C490.5 258.7 492.9 257.9 497.6 257.4C497.6 257.4 499.3 257.3 499.3 256.2C499.3 255 497.6 255.1 497.6 255.1L459.2 255.3C459.2 255.3 457.5 255.2 457.5 256.4C457.5 257.6 459.2 257.6 459.2 257.6C463.8 258.1 466.3 258.9 467.7 260C469.4 261.5 469.8 264.1 469.8 268.8L470 325.3C470 330 469.7 332.6 468 334.1C466.6 335.3 464.2 336.1 459.5 336.6C459.5 336.6 457.8 336.7 457.8 337.8C457.8 338.9 459.5 338.9 459.5 338.9L497.9 338.7C497.9 338.7 499.6 338.8 499.6 337.6C499.6 336.4 497.9 336.4 497.9 336.4C493.3 335.9 490.8 335.1 489.4 334C487.7 332.5 487.3 329.9 487.3 325.2L487.1 268.7Z" fill="currentColor" stroke="currentColor"/>
<path d="M228.9 256.2C228.9 256.2 227.5 256.2 227.5 257.3C227.5 258.3 228.9 258.4 228.9 258.4C233.8 258.4 236.7 260.1 239.4 262.7V262.8L239.6 326.3C239.6 331 239.3 333.6 237.6 335.1C236.2 336.3 233.8 337.1 229.1 337.6C229.1 337.6 227.4 337.7 227.4 338.8C227.4 339.9 229.1 339.9 229.1 339.9L254.3 339.8C254.3 339.8 256 339.9 256 338.7C256 337.5 254.3 337.4 254.3 337.4C249.7 336.9 247.2 336.1 245.8 335C244.1 333.5 243.7 330.9 243.7 326.2L243.4 266.3L312.1 339C312.9 339.8 314 341 314.9 341C315.8 341 316.4 340.4 316.4 339C316.4 338.3 316.1 269.4 316.1 269.4C316.1 264.7 316.4 262.1 318.1 260.6C319.5 259.4 321.9 258.6 326.6 258.1C326.6 258.1 328.3 258 328.3 256.9C328.3 255.7 326.6 255.8 326.6 255.8L301.4 255.9C301.4 255.9 299.7 255.8 299.7 257C299.7 258.2 301.4 258.3 301.4 258.3C306 258.8 308.5 259.6 309.9 260.7C311.6 262.2 312 264.8 312 269.5L312.2 314L257.3 256.1L237.2 256.2H228.9Z" fill="currentColor" stroke="currentColor"/>
<path d="M521.4 254.9C521.4 254.9 520 254.9 520 256C520 257 521.4 257.1 521.4 257.1C526.3 257.1 529.2 258.8 531.9 261.4V261.5L532.1 325C532.1 329.7 531.8 332.3 530.1 333.8C528.7 335 526.3 335.8 521.6 336.3C521.6 336.3 519.9 336.4 519.9 337.5C519.9 338.6 521.6 338.6 521.6 338.6L546.8 338.5C546.8 338.5 548.5 338.6 548.5 337.4C548.5 336.2 546.8 336.1 546.8 336.1C542.1 335.6 539.7 334.8 538.3 333.7C536.6 332.2 536.2 329.6 536.2 324.9L535.9 265L604.6 337.7C605.4 338.5 606.5 339.7 607.4 339.7C608.3 339.7 608.9 339.1 608.9 337.7C608.9 337 608.6 268.1 608.6 268.1C608.6 263.4 608.9 260.8 610.6 259.3C612 258.1 614.4 257.3 619.1 256.8C619.1 256.8 620.8 256.7 620.8 255.6C620.8 254.5 619.1 254.5 619.1 254.5L593.9 254.6C593.9 254.6 592.2 254.5 592.2 255.7C592.2 256.9 593.9 257 593.9 257C598.5 257.5 601 258.3 602.4 259.4C604.1 260.9 604.5 263.5 604.5 268.2L604.7 312.7L549.8 254.8L529.7 254.9H521.4Z" fill="currentColor" stroke="currentColor"/>
<path d="M132.2 310.5L150.7 274.3L171.3 310.3L132.2 310.5ZM213 337.1C210.6 336.6 208.4 335.6 207.1 334.7C205.6 333.6 203.9 331.5 201.1 326.8C201.1 326.8 160.9 255.3 160.5 254.7C160 253.9 159.4 252.8 158.5 252.8C157.4 252.8 156.9 254 156.4 254.8C156 255.6 120.2 325.7 118.9 328.1C116 333.3 111.6 336.7 107 338C106.6 338.1 106.4 338.1 105.6 338.3C105.1 338.4 103.8 338.5 103.8 339.5C103.8 340.7 105.5 340.6 105.5 340.6H106.8L132.1 340.5H132.3C132.3 340.5 134.1 340.6 134.2 339.5C134.2 338.6 133.5 338.4 132.3 338.3C131.1 338.1 129.4 337.8 129.4 337.8C125.8 337.2 123.5 335.7 123.5 331.7C123.5 329.4 124.7 327 126 324.1L130.3 314.8L172.9 314.6H173C173 314.6 179.3 326.1 180.1 327.5C180.1 327.5 181.1 329.2 181.2 330.8C181.4 332.8 180.7 334.1 179.4 335.5C178.3 336.7 176.2 337.5 172.3 338C172.3 338 170.8 338.1 170.9 339.2C170.9 340.4 172.4 340.3 172.4 340.3L213.5 340.1H215.4C215.4 340.1 217.2 340.2 217.2 338.9C217.1 337.7 215.7 337.7 213 337.1Z" fill="currentColor" stroke="currentColor"/>
<path d="M272.2 383.9L277.4 373.6L283.2 383.8L272.2 383.9ZM295.1 391.4C294.4 391.3 293.8 391 293.4 390.7C293 390.4 292.5 389.8 291.7 388.5C291.7 388.5 280.3 368.2 280.2 368.1C280.1 367.9 279.9 367.6 279.6 367.6C279.3 367.6 279.1 367.9 279 368.2C278.9 368.4 268.7 388.3 268.4 388.9C267.6 390.4 266.3 391.3 265 391.7C264.9 391.7 264.8 391.7 264.6 391.8C264.5 391.8 264.1 391.9 264.1 392.1C264.1 392.4 264.6 392.4 264.6 392.4H265H272.2H272.3C272.3 392.4 272.8 392.4 272.8 392.1C272.8 391.8 272.6 391.8 272.3 391.7C272 391.7 271.5 391.6 271.5 391.6C270.5 391.4 269.8 391 269.8 389.9C269.8 389.2 270.1 388.6 270.5 387.7L271.7 385.1L283.8 385C283.8 385 285.6 388.2 285.8 388.6C285.8 388.6 286.1 389.1 286.1 389.5C286.1 390.1 286 390.4 285.6 390.8C285.3 391.1 284.7 391.4 283.6 391.5C283.6 391.5 283.2 391.5 283.2 391.9C283.2 392.2 283.6 392.2 283.6 392.2L295.2 392.1H295.7C295.7 392.1 296.2 392.1 296.2 391.8C296.2 391.6 295.8 391.5 295.1 391.4Z" fill="currentColor" stroke="currentColor"/>
<path d="M401.8 321.4C401.8 321.4 373.1 269.8 372.4 268.4C372.4 268.4 371.4 266.7 371.3 265.1C371.1 263.1 371.8 261.8 373.1 260.4C374.2 259.2 376.3 258.4 380.2 257.9C380.2 257.9 381.7 257.8 381.6 256.7C381.6 255.5 380.1 255.6 380.1 255.6L339 255.8H337.1C337.1 255.8 335.3 255.7 335.3 257C335.3 258.1 336.7 258.2 339.4 258.7C341.8 259.2 344 260.2 345.3 261.1C346.8 262.2 348.4 264.3 351.3 269C351.3 269 391.5 340.5 391.9 341.1C392.4 341.9 393 343 393.9 343C395 343 395.5 341.9 396 341C396.4 340.2 432.2 270.1 433.5 267.7C436.4 262.5 440.8 259.1 445.4 257.8C445.8 257.7 446 257.6 446.8 257.5C447.3 257.4 448.6 257.3 448.6 256.3C448.6 255.1 446.9 255.2 446.9 255.2H445.6L420.3 255.3H420.1C420.1 255.3 418.3 255.2 418.2 256.3C418.2 257.2 418.9 257.4 420.1 257.5C421.3 257.7 423 258 423 258C426.6 258.6 428.9 260.1 428.9 264.1C428.9 266.4 427.7 268.8 426.4 271.7L401.8 321.4Z" fill="currentColor" stroke="currentColor"/>
</svg>
