<svg width="1000" height="596" viewBox="0 0 1000 596" fill="none" xmlns="http://www.w3.org/2000/svg">
<mask id="mask0_42_20" style="mask-type:luminance" maskUnits="userSpaceOnUse" x="0" y="0" width="1000" height="596">
<path d="M0.5 595.893H999.5V0.490173H0.5V595.893Z" fill="white"/>
</mask>
<g mask="url(#mask0_42_20)">
<path d="M999.5 595.904H0.5V148.169C0.5 66.9833 66.9686 0.500244 148.184 0.500244H999.5V595.904Z" fill="#E6100F"/>
<path d="M148.184 255.86H227.108V397.236H297.694V255.86H376.531V198.787H148.184V255.86Z" fill="white"/>
<path d="M514.878 356.369C498.479 356.369 486.168 351.628 475.713 341.898C465.491 332.371 458.154 317.828 458.154 298.021V295.048C458.154 275.342 465.491 260.567 475.713 251.113C486.168 241.311 498.566 236.787 514.878 236.787C553.42 236.787 561.641 259.726 564.106 274.675H626.747C625.21 244.486 610.825 223.273 590.496 209.149C570.269 195.084 546.764 187.907 515.56 187.907C477.207 187.907 449.961 196.447 427.559 215.428C404.996 234.8 392.99 265.294 392.99 295.773V297.325C392.99 330.646 403.445 355.63 426.573 376.655C448.207 396.317 479.759 405.307 514.82 405.191C545.894 405.191 572.574 397.897 591.033 384.021C611.391 368.636 625.297 347.045 626.964 318.567H564.469C562.743 330.53 555.203 356.369 514.878 356.369Z" fill="white"/>
<path d="M732.693 342.817V198.788H664.73V397.164H844.169V342.817H732.693Z" fill="white"/>
</g>
</svg>
